# xmcd
#
# Track frame offsets:
#	150
#	17045
#	37115
#	57562
#	77695
#	100127
#	113970
#	131290
#	151982
#	171610
#	188345
#
# Disc length: 2817 seconds
#
# Revision: 0
# Processed by: cddbd v1.4PL0 Copyright (c) Steve Scherf et al.
# Submitted via: audiograbber 1.81.01
#
DISCID=8b0aff0b
DTITLE=Squallor - I grandi successi originali cd1
DYEAR=1900
DGENRE=pop
TTITLE0=O tempo se ne va
TTITLE1=Arraphao
TTITLE2=El toro
TTITLE3=Piacere pesce
TTITLE4=Rep e rip
TTITLE5='o ricuttaro 'nnammurato
TTITLE6=a chi lo do stasera
TTITLE7=Il circo lofion
TTITLE8=Ne me tire plus
TTITLE9=Va fanculo con chi vuo tu
TTITLE10=Albachiava
EXTD=
EXTT0=
EXTT1=
EXTT2=
EXTT3=
EXTT4=
EXTT5=
EXTT6=
EXTT7=
EXTT8=
EXTT9=
EXTT10=
PLAYORDER=
